{"title":"The Last King of Scotland (2006) DVDRip XviD AC3 peaSoup","uid":8887379,"size":1386966440,"categoryP":"video","categoryS":"movies","magnet":"?xt=urn:btih:092b4073fee5ef5da092817b41ab56bd472a07dd&amp;dn=The+Last+King+of+Scotland+%282006%29+DVDRip+XviD+AC3+peaSoup&amp;tr=udp%3A%2F%2Ftracker.openbittorrent.com%3A80&amp;tr=udp%3A%2F%2Fopen.demonii.com%3A1337&amp;tr=udp%3A%2F%2Ftracker.coppersurfer.tk%3A6969&amp;tr=udp%3A%2F%2Fexodus.desync.com%3A6969","seeders":8,"leechers":1,"uploader":"peaSoup","files":-1,"time":1378492740,"description":"Storyline\n\nIn the early 1970s, Nicholas Garrigan, a young semi-idealistic Scottish doctor, comes to Uganda to assist in a rural hospital. Once there, he soon meets up with the new President, Idi Amin, who promises a golden age for the African nation. Garrigan hits it off immediately with the rabid Scotland fan, who soon offers him a senior position in the national health department and becomes one of Amin's closest advisers. However as the years pass, Garrigan cannot help but notice Amin's increasingly erratic behavior that grows beyond a legitimate fear of assassination into a murderous insanity that is driving Uganda into bloody ruin. Realizing his dire situation with the lunatic leader unwilling to let him go home, Garrigan must make some crucial decisions that could mean his death if the despot finds out.      &lt;a href=&quot; http://imageshack.us/a/img850/9668/5pu3.jpg&quot; rel=&quot;nofollow&quot; target=&quot;_NEW&quot;&gt; http://imageshack.us/a/img850/9668/5pu3.jpg&lt;/a&gt;                                         &lt;a href=&quot; http://imageshack.us/a/img10/7762/15os.jpg&quot; rel=&quot;nofollow&quot; target=&quot;_NEW&quot;&gt; http://imageshack.us/a/img10/7762/15os.jpg&lt;/a&gt;                                          &lt;a href=&quot; http://imageshack.us/a/img90/6964/4b06.jpg&quot; rel=&quot;nofollow&quot; target=&quot;_NEW&quot;&gt; http://imageshack.us/a/img90/6964/4b06.jpg&lt;/a&gt;                                          &lt;a href=&quot; http://imageshack.us/a/img35/9976/jzp1.jpg&quot; rel=&quot;nofollow&quot; target=&quot;_NEW&quot;&gt; http://imageshack.us/a/img35/9976/jzp1.jpg&lt;/a&gt;                                          &lt;a href=&quot; http://imageshack.us/a/img542/6159/mwz5.jpg&quot; rel=&quot;nofollow&quot; target=&quot;_NEW&quot;&gt; http://imageshack.us/a/img542/6159/mwz5.jpg&lt;/a&gt;                                          Format                                   : AVI\nFormat/Info                              : Audio Video Interleave\nFormat profile                           : OpenDML\nFile size                                : 1.29 GiB\nDuration                                 : 1h 57mn\nOverall bit rate                         : 1 562 Kbps\nMovie name                               : The Last King of Scotland (2006) DVDRip XviD AC3 peaSoup\nWriting application                      : Lavf53.21.0\nOriginal source form/Name                : LAST_KING_OF_SCOTLAND\n\nVideo\nID                                       : 0\nFormat                                   : MPEG-4 Visual\nFormat profile                           : Advanced Simple@L5\nFormat settings, BVOP                    : 2\nFormat settings, QPel                    : No\nFormat settings, GMC                     : No warppoints\nFormat settings, Matrix                  : Default (H.263)\nMuxing mode                              : Packed bitstream\nCodec ID                                 : XVID\nCodec ID/Hint                            : XviD\nDuration                                 : 1h 57mn\nBit rate                                 : 1 101 Kbps\nWidth                                    : 720 pixels\nHeight                                   : 306 pixels\nDisplay aspect ratio                     : 2.35:1\nFrame rate                               : 25.000 fps\nColor space                              : YUV\nChroma subsampling                       : 4:2:0\nBit depth                                : 8 bits\nScan type                                : Progressive\nCompression mode                         : Lossy\nBits/(Pixel*Frame)                       : 0.200\nStream size                              : 929 MiB (71%)\nWriting library                          : XviD 1.2.1 (UTC 2008-12-04)\n\nAudio\nID                                       : 1\nFormat                                   : AC-3\nFormat/Info                              : Audio Coding 3\nMode extension                           : CM (complete main)\nFormat settings, Endianness              : Big\nCodec ID                                 : 2000\nDuration                                 : 1h 57mn\nBit rate mode                            : Constant\nBit rate                                 : 448 Kbps\nChannel(s)                               : 6 channels\nChannel positions                        : Front: L C R, Side: L R, LFE\nSampling rate                            : 48.0 KHz\nBit depth                                : 16 bits\nCompression mode                         : Lossy\nStream size                              : 378 MiB (29%)\nAlignment                                : Aligned on interleaves\nInterleave, duration                     : 32 ms (0.80 video frame)\n\n","torrent":{"xt":"urn:btih:092b4073fee5ef5da092817b41ab56bd472a07dd","amp;dn":"The+Last+King+of+Scotland+%282006%29+DVDRip+XviD+AC3+peaSoup","amp;tr":["udp%3A%2F%2Ftracker.openbittorrent.com%3A80","udp%3A%2F%2Fopen.demonii.com%3A1337","udp%3A%2F%2Ftracker.coppersurfer.tk%3A6969","udp%3A%2F%2Fexodus.desync.com%3A6969"],"infoHash":"092b4073fee5ef5da092817b41ab56bd472a07dd","infoHashBuffer":{"type":"Buffer","data":[9,43,64,115,254,229,239,93,160,146,129,123,65,171,86,189,71,42,7,221]},"announce":[],"urlList":[]}}